# xmcd
#
# Track frame offsets: 
#        150
#        14924
#        32873
#        42789
#        63745
#        79425
#        89803
#        103295
#
# Disc length: 1579 seconds
#
# Revision: 0
# Processed by: cddbd v1.5.2PL0 Copyright (c) Steve Scherf et al.
# Submitted via: ExactAudioCopyFreeDBPlugin 1.0
#
DISCID=77062908
DTITLE=Hank Williams III - Ramblin' Man
DYEAR=2014
DGENRE=Country
TTITLE0=Ramblin' Man
TTITLE1=Fearless Boogie
TTITLE2=Okie From Muskogee
TTITLE3=I'm The Only Hell My Mama Ever Raised
TTITLE4=On My Own
TTITLE5=Marijuana Blues
TTITLE6=Hang On
TTITLE7=Runnin' And Gunnin'
EXTD=
EXTT0=
EXTT1=
EXTT2=
EXTT3=
EXTT4=
EXTT5=
EXTT6=
EXTT7=
PLAYORDER=
